<?xml version="1.0" encoding="iso-8859-1"?>
<!-- Generator: Adobe Illustrator 19.2.1, SVG Export Plug-In . SVG Version: 6.00 Build 0)  -->
<svg version="1.1" xmlns="http://www.w3.org/2000/svg" xmlns:xlink="http://www.w3.org/1999/xlink" x="0px" y="0px"
	 viewBox="0 0 31.97 30.114" style="enable-background:new 0 0 31.97 30.114;" xml:space="preserve">
<g id="Layer_11">
	<path style="fill:#FF9999;" d="M30.1,1.87c1.16,1.18,1.16,3.08,0,4.26l-15.32,15.3c-0.52-2.08-2.16-3.72-4.24-4.24l15.3-15.32
		C27.02,0.71,28.92,0.71,30.1,1.87z"/>
	<path style="fill:#FFD580;" d="M14.78,21.43c0.14,0.48,0.22,1,0.22,1.54c0,6.84-7.18,6.44-14,5.84c1.1-1.28,2-2.1,2-5.84
		c0-2.46,1.48-4.56,3.58-5.5c0.74-0.32,1.56-0.5,2.42-0.5c0.54,0,1.06,0.08,1.54,0.22l-0.08,0.08c1.94,0.68,3.52,2.38,4.18,4.3
		L14.78,21.43z"/>
	<path style="fill:#664848;" d="M30.814,1.169l-0.012-0.012C30.018,0.387,28.99-0.001,27.97,0c-1.019-0.001-2.048,0.387-2.831,1.157
		l-0.006,0.006L10.217,16.099C9.824,16.024,9.421,15.97,9,15.97c-1,0-1.956,0.21-2.817,0.582l-0.012,0.005
		C3.728,17.649,2.002,20.099,2,22.97c0,1.795-0.218,2.786-0.504,3.443c-0.285,0.656-0.675,1.075-1.254,1.745
		c-0.245,0.285-0.31,0.68-0.168,1.029s0.464,0.586,0.839,0.619c1.813,0.159,3.67,0.307,5.443,0.308
		c2.458-0.007,4.768-0.265,6.61-1.321c0.917-0.529,1.704-1.282,2.233-2.266c0.532-0.984,0.802-2.173,0.801-3.556
		c0-0.421-0.054-0.824-0.129-1.217L30.807,6.838l0.007-0.007C31.584,6.048,31.971,5.019,31.97,4
		C31.971,2.981,31.584,1.952,30.814,1.169z M13.44,25.576c-0.517,0.949-1.349,1.555-2.572,1.971
		c-1.215,0.409-2.784,0.568-4.512,0.567c-1.09,0-2.249-0.069-3.421-0.156c0.14-0.227,0.275-0.47,0.395-0.746
		C3.768,26.204,4,24.915,4,22.97c-0.001-2.047,1.23-3.794,2.982-4.584C7.6,18.12,8.282,17.97,9,17.97
		c0.297,0,0.582,0.039,0.86,0.093c0.082,0.062,0.17,0.116,0.27,0.151c1.61,0.553,3.012,2.046,3.565,3.681
		c0.051,0.15,0.14,0.28,0.25,0.387c0.035,0.224,0.056,0.453,0.056,0.688C14,24.101,13.784,24.937,13.44,25.576z M29.388,5.429
		L15.148,19.65c-0.64-1.203-1.624-2.187-2.827-2.827l14.221-14.24C26.938,2.193,27.45,2.001,27.97,2
		c0.518,0.001,1.026,0.192,1.422,0.578C29.778,2.974,29.969,3.482,29.97,4C29.969,4.521,29.777,5.032,29.388,5.429z"/>
</g>
<g id="Layer_1">
</g>
</svg>
