<?xml version="1.0" encoding="iso-8859-1"?>
<!-- Generator: Adobe Illustrator 19.2.1, SVG Export Plug-In . SVG Version: 6.00 Build 0)  -->
<svg version="1.1" xmlns="http://www.w3.org/2000/svg" xmlns:xlink="http://www.w3.org/1999/xlink" x="0px" y="0px"
	 viewBox="0 0 32.257 32.227" style="enable-background:new 0 0 32.257 32.227;" xml:space="preserve">
<g id="Layer_41">
	<path style="fill:#FF8080;" d="M31.225,16.373v8.62c0,1.1-0.9,2-2,2s-2-0.9-2-2v-5.86v-1.3v-0.16v-5.52l3.56,3.56
		C30.985,15.913,31.125,16.133,31.225,16.373z"/>
	<path style="fill:#99DDFF;" d="M20.445,10.913l-6.64-6.64l-0.06,0.06c-0.72-0.78-0.7-2,0.06-2.76c0.38-0.38,0.9-0.58,1.42-0.58
		s1.04,0.2,1.42,0.58l10.58,10.58v5.52L20.445,10.913z"/>
	<path style="fill:#664848;" d="M31.492,15.006l-3.56-3.56l-10.58-10.58c-0.581-0.579-1.353-0.872-2.127-0.873
		c-0.774,0.001-1.546,0.294-2.127,0.873C12.52,1.443,12.219,2.21,12.22,2.976c-0.001,0.409,0.092,0.977,0.261,1.364l-5.73,5.887
		H1.225c-0.552,0-1,0.448-1,1s0.448,1,1,1h3.526l-3.873,3.716C0.295,16.525-0.001,17.218,0,17.982
		c-0.001,0.763,0.295,1.496,0.878,2.078l11.32,11.3c0.582,0.583,1.354,0.869,2.117,0.868c0.763,0.001,1.423-0.3,2.005-0.883
		L26,21.547v3.446c0,1.657,1.456,2.996,3.112,3c1.657-0.004,3.052-1.343,3.056-3C32.169,15.81,32.492,16,31.492,15.006z
		 M13.735,6.072l4.156,4.156H9.579L13.735,6.072z M26,18.719L14.905,29.926c-0.198,0.197-0.39,0.291-0.647,0.292
		c-0.257-0.001-0.477-0.095-0.675-0.292L2.278,18.606c-0.197-0.198-0.284-0.446-0.285-0.703c0.001-0.257,0.098-0.347,0.296-0.546
		l5.291-5.13h12.312L26,18.247V18.719z M26,15.264l-3.948-3.932c0.217-0.674-0.193-1.105-0.827-1.105h-0.366l-6.347-6.504
		c-0.044-0.044-0.099-0.143-0.148-0.177c-0.086-0.151-0.144-0.353-0.145-0.53c0.001-0.25,0.095-0.523,0.292-0.721
		C14.691,2.114,14.959,1.999,15.225,2c0.266-0.001,0.422,0.102,0.6,0.283L26,12.567V15.264z M30,24.993c0,0.543-0.457,0.999-1,1
		c-0.543-0.001-1-0.457-1-1v-5.86v-1.3v-0.16v-3.106l1.853,1.853L30,16.642V24.993z"/>
</g>
<g id="Layer_1">
</g>
</svg>
