<?xml version="1.0" encoding="iso-8859-1"?>
<!-- Generator: Adobe Illustrator 19.2.1, SVG Export Plug-In . SVG Version: 6.00 Build 0)  -->
<svg version="1.1" xmlns="http://www.w3.org/2000/svg" xmlns:xlink="http://www.w3.org/1999/xlink" x="0px" y="0px"
	 viewBox="0 0 31.97 27.965" style="enable-background:new 0 0 31.97 27.965;" xml:space="preserve">
<g id="Layer_12">
	<path style="fill:#99DDFF;" d="M30.385,10.12c0.78,0.78,0.78,2.04,0,2.82l-10.72,10.72L8.345,12.34l10.72-10.72
		c0.78-0.78,2.04-0.78,2.82,0L30.385,10.12z"/>
	<path style="fill:#FF9999;" d="M19.665,23.66l-2.18,2.16c-0.74,0.76-1.76,1.18-2.82,1.18h-6.34c-1.06,0-2.08-0.42-2.84-1.18
		l-3.9-3.9c-0.78-0.78-0.78-2.04,0-2.82l6.76-6.76L19.665,23.66z"/>
	<path style="fill:#664848;" d="M31.092,9.413l-8.5-8.5c-0.582-0.583-1.354-0.879-2.117-0.878c-0.763-0.001-1.535,0.295-2.117,0.878
		l-10.72,10.72l-6.76,6.76C0.295,18.975-0.001,19.747,0,20.51c-0.001,0.763,0.295,1.535,0.878,2.117l3.9,3.883
		C5.724,27.456,7,27.965,8.325,27.965h6.34c1.318,0,2.591-0.504,3.523-1.453l0.001,0.01l2.18-2.156l0.003-0.001l10.72-10.719
		c0.583-0.582,0.879-1.353,0.878-2.117C31.971,10.766,31.675,9.995,31.092,9.413z M16.781,25.11l-0.013-0.005
		c-0.547,0.562-1.307,0.86-2.104,0.86h-6.34c-0.796,0-1.559-0.296-2.133-0.87l-3.9-3.891C2.095,21.006,2.001,20.762,2,20.506
		c0.001-0.257,0.095-0.503,0.292-0.701l6.053-6.052l9.903,9.903L16.781,25.11z M29.678,12.233L19.665,22.246L9.759,12.34
		L19.772,2.327c0.198-0.197,0.446-0.291,0.703-0.292c0.257,0.001,0.505,0.095,0.703,0.292l8.5,8.5
		c0.197,0.198,0.291,0.446,0.292,0.703C29.969,11.787,29.875,12.035,29.678,12.233z"/>
</g>
<g id="Layer_1">
</g>
</svg>
